<?xml version="1.0" standalone="no"?>
<!DOCTYPE svg PUBLIC "-//W3C//DTD SVG 20010904//EN"
 "http://www.w3.org/TR/2001/REC-SVG-20010904/DTD/svg10.dtd">
<svg version="1.0" xmlns="http://www.w3.org/2000/svg"
 width="512.000000pt" height="512.000000pt" viewBox="0 0 512.000000 512.000000"
 preserveAspectRatio="xMidYMid meet">
<metadata>
Created by potrace 1.14, written by Peter Selinger 2001-2017
</metadata>
<g transform="translate(0.000000,512.000000) scale(0.100000,-0.100000)"
fill="#000000" stroke="none">
<path d="M1026 2691 c-4 -6 -12 -9 -17 -6 -5 4 -9 0 -9 -7 0 -10 -3 -9 -9 1
-7 11 -13 12 -23 3 -11 -9 -17 -9 -26 0 -7 7 -12 8 -12 2 0 -6 -21 -10 -47
-10 -80 0 -138 -7 -145 -19 -5 -6 -8 -6 -8 0 0 6 -30 9 -72 8 -40 -1 -73 -2
-73 -3 0 -1 -43 -2 -95 -3 -52 -1 -100 -5 -107 -10 -6 -4 -15 -2 -19 5 -5 8
-10 6 -15 -8 -7 -17 -8 -17 -8 -1 -1 15 -4 16 -22 6 -15 -8 -19 -8 -15 0 8 12
-7 15 -18 4 -4 -5 -11 -9 -14 -9 -40 -8 -48 -17 -51 -56 -1 -30 1 -38 11 -32
10 5 10 4 1 -6 -7 -7 -8 -22 -3 -39 4 -14 6 -34 4 -43 -1 -10 1 -18 4 -18 4 0
8 -13 9 -29 4 -61 12 -111 19 -123 4 -6 3 -9 -2 -5 -13 8 -4 -105 9 -122 9
-12 9 -13 -1 -7 -10 6 -11 1 -6 -21 4 -15 9 -32 12 -37 5 -9 12 -69 15 -138 1
-21 5 -38 10 -38 5 0 4 -6 -2 -13 -6 -8 -8 -17 -4 -20 3 -4 7 -28 7 -54 1 -27
5 -54 9 -60 5 -8 3 -13 -4 -13 -7 0 -6 -8 4 -24 12 -17 13 -26 4 -35 -8 -8 -8
-11 0 -11 6 0 10 -11 8 -25 -1 -14 1 -27 4 -29 4 -3 6 -23 6 -45 0 -23 3 -41
8 -41 4 0 3 -8 -2 -19 -6 -10 -8 -20 -6 -23 2 -2 7 -33 10 -68 5 -61 11 -105
15 -105 1 0 3 -18 5 -40 3 -22 7 -56 11 -75 7 -35 9 -48 12 -83 1 -10 6 -16
10 -13 5 3 14 -22 20 -56 6 -34 16 -64 21 -67 9 -6 27 -79 23 -95 -2 -5 5 -5
15 -2 14 6 15 4 6 -5 -8 -7 -8 -17 -2 -28 5 -9 13 -27 18 -41 10 -28 48 -37
81 -20 10 6 21 7 23 2 4 -6 192 -8 192 -2 0 1 30 3 66 4 36 2 72 7 79 11 8 5
11 4 7 -2 -5 -7 110 -10 358 -9 201 0 365 -1 365 -4 0 -3 9 -6 20 -7 11 -1 18
2 16 6 -3 4 1 8 9 8 8 0 15 -3 15 -7 0 -4 7 -7 15 -7 8 0 15 5 15 11 0 7 3 8
8 1 8 -12 102 -15 102 -3 0 4 10 4 23 -1 12 -4 203 -9 425 -9 221 -1 407 -4
412 -7 5 -3 11 -2 14 3 3 4 30 5 60 2 33 -4 60 -2 66 4 6 6 10 6 10 0 0 -5 84
-9 210 -9 116 0 210 -3 210 -7 0 -11 23 -6 32 7 5 6 8 5 8 -4 0 -11 3 -11 15
-1 9 7 15 8 15 2 0 -11 18 -11 37 1 6 4 15 3 18 -3 5 -8 11 -8 20 0 10 8 15 8
20 -1 6 -8 10 -7 16 2 6 9 9 10 9 2 0 -12 17 -12 37 0 6 4 15 3 18 -3 5 -8 12
-7 23 2 9 7 13 8 9 2 -4 -8 4 -13 23 -16 22 -3 30 0 31 11 0 12 2 11 8 -3 5
-14 10 -16 15 -8 4 7 12 9 18 6 17 -11 178 -10 182 1 3 6 5 4 5 -4 1 -11 4
-11 18 0 9 8 14 10 11 4 -7 -11 102 -12 120 -2 5 4 12 4 15 1 10 -10 146 -10
140 0 -4 5 0 5 8 0 8 -5 85 -9 172 -10 134 -1 159 2 168 15 9 14 10 14 5 -1
-3 -10 -2 -18 3 -18 14 0 53 52 57 76 10 60 13 71 25 99 7 17 13 33 14 38 2 4
4 10 5 15 1 4 2 10 1 14 0 4 7 29 18 55 10 27 24 72 31 101 6 28 15 52 19 52
7 0 12 26 15 73 0 15 3 27 6 27 3 0 11 9 18 21 11 17 11 20 0 13 -7 -4 -5 2 5
13 9 11 15 22 11 25 -3 3 2 22 10 42 8 20 12 36 8 36 -4 0 -2 4 5 8 6 4 14 27
17 51 3 23 10 48 15 55 6 7 8 16 4 19 -3 4 -1 7 6 7 8 0 11 8 8 20 -3 11 -2
20 2 20 4 0 8 11 9 26 1 14 7 35 14 47 7 12 13 27 14 32 3 11 14 62 17 79 1 6
6 14 10 17 4 3 10 17 12 30 3 13 8 35 11 49 4 14 7 35 8 46 1 13 6 20 14 16 8
-3 12 1 11 9 -3 17 9 68 22 91 13 25 11 58 -3 58 -10 0 -9 3 1 9 9 6 10 10 2
12 -7 3 -14 17 -16 32 -3 15 -6 39 -9 53 -2 15 -7 29 -12 33 -5 3 -10 12 -12
19 -7 38 -11 59 -11 75 -1 12 -6 16 -13 11 -10 -5 -10 -4 -1 6 10 11 9 16 -1
24 -8 6 -17 31 -20 56 -8 63 -41 89 -110 88 -28 -1 -57 1 -63 5 -7 4 -14 3
-18 -3 -4 -6 -12 -7 -22 -1 -9 5 -29 5 -45 1 -15 -5 -28 -6 -28 -2 0 8 -79 14
-202 16 -43 0 -78 4 -78 8 0 11 -23 5 -32 -7 -5 -6 -8 -5 -8 3 0 14 -36 17
-45 3 -3 -6 -17 -4 -33 5 -31 16 -56 18 -47 4 4 -7 -2 -7 -19 0 -13 5 -63 9
-109 8 -47 0 -90 2 -95 6 -6 3 -13 2 -16 -3 -3 -5 -14 -7 -24 -4 -22 5 -51
-46 -47 -83 1 -13 -2 -24 -7 -24 -6 0 -8 -6 -5 -13 3 -7 1 -33 -4 -58 -6 -24
-10 -50 -11 -56 -1 -7 -5 -13 -9 -13 -3 0 -6 -20 -5 -45 1 -25 -1 -45 -5 -45
-3 0 -6 -10 -5 -22 3 -32 -12 -62 -36 -77 -11 -7 -17 -8 -13 -2 7 12 -8 15
-19 4 -3 -4 -59 -7 -124 -7 -64 -1 -123 -5 -131 -10 -10 -6 -12 -5 -7 2 5 8
-1 12 -14 12 -12 0 -19 -4 -15 -9 3 -5 1 -13 -5 -16 -6 -4 -9 -1 -8 6 4 16
-173 20 -184 4 -5 -6 -8 -6 -8 3 0 6 -9 12 -20 12 -14 0 -18 -5 -14 -17 5 -15
4 -15 -4 -3 -13 17 -192 23 -192 5 0 -7 -3 -7 -8 0 -8 12 -41 13 -59 2 -6 -4
-14 -3 -17 2 -7 11 -25 9 -45 -3 -10 -6 -12 -5 -7 2 5 8 -1 12 -14 12 -13 0
-19 -4 -14 -12 4 -7 3 -8 -5 -4 -22 14 -71 16 -71 3 0 -9 -2 -9 -8 0 -6 10
-14 9 -35 -2 -15 -8 -25 -10 -22 -6 2 5 -24 8 -60 8 -39 0 -65 -5 -65 -11 0
-8 -3 -8 -8 0 -9 14 -43 14 -61 0 -11 -8 -13 -8 -8 1 9 15 -35 14 -45 -2 -5
-7 -8 -7 -8 1 0 6 -14 11 -30 12 -21 0 -28 -3 -23 -11 4 -8 1 -7 -9 1 -13 10
-17 10 -21 0 -4 -11 -6 -10 -6 0 -1 8 -6 10 -13 5 -19 -11 -148 -11 -141 0 4
6 1 7 -8 1 -19 -11 -138 -14 -145 -2 -3 4 -11 5 -17 1 -12 -8 -77 -14 -127
-12 -167 5 -331 2 -334 -6 -3 -5 -5 -4 -5 3 -1 7 -5 11 -10 8 -4 -3 -53 -6
-107 -7 -139 -1 -168 0 -161 7 3 3 -3 16 -14 27 -13 14 -15 23 -8 28 8 5 8 8
0 13 -8 5 -8 13 0 28 8 16 8 19 -1 13 -9 -6 -9 -2 -1 14 7 12 8 21 2 21 -10 0
-9 19 2 38 5 7 3 12 -3 12 -6 0 -8 5 -4 12 10 16 11 78 1 78 -5 0 -6 4 -3 8 3
5 -1 20 -9 35 -7 14 -11 28 -7 31 3 3 -2 14 -12 25 -9 10 -19 31 -22 46 -3 16
-14 41 -25 57 -11 15 -17 28 -12 28 15 1 -27 21 -53 26 -19 3 -24 1 -18 -8 6
-10 3 -9 -9 1 -14 11 -17 11 -17 0 0 -12 -2 -12 -9 0 -6 9 -11 10 -15 2z"/>
</g>
</svg>
